HIERARCHY
ROOT Hips
{
 OFFSET 0.000000 0.000000 0.000000
 CHANNELS 6 Xposition Yposition Zposition Yrotation Xrotation Zrotation
 JOINT Chest
 {
  OFFSET 0.000000 10.932484 0.001155
  CHANNELS 3 Yrotation Xrotation Zrotation
  JOINT Chest2
  {
   OFFSET 0.000000 12.093805 -0.002099
   CHANNELS 3 Yrotation Xrotation Zrotation
   JOINT Chest3
   {
    OFFSET 0.000000 10.927800 0.000000
    CHANNELS 3 Yrotation Xrotation Zrotation
    JOINT Chest4
    {
     OFFSET 0.000000 10.927800 0.000000
     CHANNELS 3 Yrotation Xrotation Zrotation
     JOINT Neck
     {
      OFFSET 0.000000 15.355144 0.000000
      CHANNELS 3 Yrotation Xrotation Zrotation
      JOINT Head
      {
       OFFSET 0.000000 10.170446 -0.004991
       CHANNELS 3 Yrotation Xrotation Zrotation
       End Site
       {
        OFFSET 0.000000 19.463738 -0.002607
       }
      }
     }
     JOINT RightCollar
     {
      OFFSET -3.333126 8.566406 0.000000
      CHANNELS 3 Yrotation Xrotation Zrotation
      JOINT RightShoulder
      {
       OFFSET -15.529370 0.000000 0.000000
       CHANNELS 3 Yrotation Xrotation Zrotation
       JOINT RightElbow
       {
        OFFSET 0.000000 -33.145213 0.000000
        CHANNELS 3 Yrotation Xrotation Zrotation
        JOINT RightWrist
        {
         OFFSET 0.000000 -27.120720 -0.000000
         CHANNELS 3 Yrotation Xrotation Zrotation
         End Site
         {
          OFFSET 0.000000 -20.306483 0.000000
         }
        }
       }
      }
     }
     JOINT LeftCollar
     {
      OFFSET 3.333126 8.566406 0.000000
      CHANNELS 3 Yrotation Xrotation Zrotation
      JOINT LeftShoulder
      {
       OFFSET 15.529370 0.000000 0.000000
       CHANNELS 3 Yrotation Xrotation Zrotation
       JOINT LeftElbow
       {
        OFFSET 0.000000 -33.145213 0.000000
        CHANNELS 3 Yrotation Xrotation Zrotation
        JOINT LeftWrist
        {
         OFFSET 0.000000 -27.120720 -0.000000
         CHANNELS 3 Yrotation Xrotation Zrotation
         End Site
         {
          OFFSET 0.000000 -20.306483 0.000000
         }
        }
       }
      }
     }
    }
   }
  }
 }
 JOINT RightHip
 {
  OFFSET -8.869179 -0.005661 -0.000578
  CHANNELS 3 Yrotation Xrotation Zrotation
  JOINT RightKnee
  {
   OFFSET 0.000000 -45.835245 0.000547
   CHANNELS 3 Yrotation Xrotation Zrotation
   JOINT RightAnkle
   {
    OFFSET 0.000000 -44.890236 0.000924
    CHANNELS 3 Yrotation Xrotation Zrotation
    JOINT RightToe
    {
     OFFSET 0.000000 -8.082775 18.351045
     CHANNELS 3 Yrotation Xrotation Zrotation
     End Site
     {
      OFFSET 0.000000 -1.681997 7.345339
     }
    }
   }
  }
 }
 JOINT LeftHip
 {
  OFFSET 8.869179 -0.005661 -0.000578
  CHANNELS 3 Yrotation Xrotation Zrotation
  JOINT LeftKnee
  {
   OFFSET 0.000000 -45.835245 0.000547
   CHANNELS 3 Yrotation Xrotation Zrotation
   JOINT LeftAnkle
   {
    OFFSET 0.000000 -44.890236 0.000924
    CHANNELS 3 Yrotation Xrotation Zrotation
    JOINT LeftToe
    {
     OFFSET 0.000000 -8.082775 18.351045
     CHANNELS 3 Yrotation Xrotation Zrotation
     End Site
     {
      OFFSET 0.000000 -1.681997 7.345339
     }
    }
   }
  }
 }
}
MOTION
Frames: 15
Frame Time: 0.008333
290.039128 53.213190 183.864336 -30.033591 -31.725083 -1.898241 0.544761 17.358866 -0.376687 0.244063 7.734563 -0.462689 0.244063 7.734563 -0.462689 0.188655 5.800743 -0.349593 -4.251831 13.524179 -0.472994 -7.851795 -10.981272 0.814124 -4.635862 0.620972 5.420724 21.930741 -1.143928 -34.932656 28.538665 -63.765038 10.074919 44.731804 -23.567923 -60.627533 1.615803 -0.694858 -4.668451 -27.796417 -2.717114 48.541609 -6.280883 -56.011184 -29.710536 -48.870223 -50.236159 59.180208 -26.274895 -55.061741 15.524878 -157.122257 74.207607 -164.099881 2.741196 -15.786615 -5.451207 -0.113943 0.854361 -0.051742 20.209221 -58.009377 -5.708245 174.560679 67.782963 178.686044 5.511124 -22.670709 6.549835 -0.028339 -0.229163 -0.014635
290.036829 53.213710 183.861355 -30.034550 -31.723274 -1.897058 0.542607 17.360254 -0.380823 0.243444 7.734972 -0.463863 0.243444 7.734972 -0.463863 0.188208 5.801049 -0.350464 -4.254324 13.526810 -0.470835 -7.857250 -10.976136 0.819032 -4.635297 0.625379 5.419625 21.932849 -1.148632 -34.919621 28.535605 -63.768713 10.064793 44.751669 -23.556719 -60.618741 1.618951 -0.689832 -4.673089 -27.798341 -2.714106 48.561749 -6.252717 -55.992694 -29.776085 -48.923423 -50.219583 59.240489 -26.276439 -55.063757 15.525038 -157.146549 74.210661 -164.120745 2.752645 -15.783196 -5.458999 -0.115474 0.852851 -0.052143 20.205724 -58.010028 -5.702133 174.565092 67.785323 178.683106 5.550231 -22.674057 6.537989 -0.027525 -0.229917 -0.014006
290.038399 53.214943 183.861053 -30.032924 -31.721660 -1.892346 0.534255 17.365667 -0.392182 0.242577 7.735976 -0.465528 0.242577 7.735976 -0.465528 0.187580 5.801803 -0.351701 -4.257392 13.528448 -0.467463 -7.864326 -10.972735 0.826522 -4.636619 0.627206 5.422635 21.935407 -1.154036 -34.909443 28.554635 -63.770051 10.036855 44.759526 -23.546036 -60.615604 1.627364 -0.688826 -4.671817 -27.803063 -2.711736 48.572358 -6.254418 -56.009138 -29.788563 -48.917899 -50.208139 59.259101 -26.273528 -55.068054 15.521563 -157.132776 74.209614 -164.107590 2.727658 -15.782925 -5.450047 -0.119261 0.850575 -0.053629 20.221797 -58.007608 -5.717352 174.537341 67.788955 178.660111 5.520181 -22.669674 6.548956 -0.028524 -0.230798 -0.014467
290.039005 53.219105 183.864536 -30.011915 -31.739539 -1.880680 0.508823 17.389454 -0.420676 0.242403 7.737101 -0.466654 0.242403 7.737101 -0.466654 0.187465 5.802646 -0.352542 -4.259692 13.527762 -0.465095 -7.869657 -10.973746 0.831957 -4.638857 0.620201 5.431139 21.934771 -1.155035 -34.906845 28.559171 -63.768192 10.030266 44.767771 -23.545055 -60.619855 1.620342 -0.690040 -4.670619 -27.799332 -2.705115 48.584413 -6.228388 -55.995277 -29.841698 -48.963968 -50.194770 59.311122 -26.251125 -55.060120 15.472937 -157.123888 74.211211 -164.095105 2.695915 -15.766089 -5.452943 -0.104017 0.831814 -0.046064 20.235450 -57.974861 -5.755301 174.507799 67.795679 178.632236 5.558849 -22.669715 6.533545 -0.024846 -0.234778 -0.013299
290.034133 53.219864 183.856524 -30.034791 -31.716216 -1.899149 0.533590 17.370798 -0.397660 0.241461 7.738296 -0.468842 0.241461 7.738296 -0.468842 0.186788 5.803543 -0.354169 -4.259078 13.528648 -0.459542 -7.870683 -10.971781 0.842146 -4.638447 0.615861 5.440318 21.930732 -1.159659 -34.901822 28.571678 -63.763980 10.020209 44.776910 -23.552687 -60.614841 1.620908 -0.689286 -4.662449 -27.793702 -2.703756 48.589364 -6.229571 -56.007078 -29.853279 -48.959775 -50.185625 59.321510 -26.288252 -55.063859 15.539734 -157.062806 74.213829 -164.034407 2.741109 -15.775139 -5.457419 -0.119303 0.847197 -0.053010 20.222281 -58.009930 -5.715584 174.490485 67.793650 178.618094 5.599690 -22.673535 6.513586 -0.026420 -0.234447 -0.013362
290.039860 53.225157 183.863024 -30.012919 -31.735016 -1.886431 0.504459 17.395715 -0.431072 0.240676 7.739239 -0.469695 0.240676 7.739239 -0.469695 0.186212 5.804250 -0.354798 -4.260173 13.527681 -0.455779 -7.874312 -10.973283 0.849754 -4.637625 0.604925 5.447496 21.930557 -1.161009 -34.897299 28.572038 -63.757241 10.019192 44.779985 -23.555517 -60.612116 1.619286 -0.688665 -4.660282 -27.787778 -2.701590 48.599435 -6.202471 -55.990886 -29.904670 -49.009779 -50.177616 59.376632 -26.268418 -55.055659 15.487090 -157.071601 74.217375 -164.045683 2.710527 -15.757752 -5.458421 -0.101771 0.828905 -0.044998 20.236466 -57.976152 -5.746498 174.492974 67.805106 178.626139 5.476452 -22.655081 6.564204 -0.028398 -0.234983 -0.014743
290.043087 53.228815 183.865300 -30.007692 -31.735760 -1.890586 0.498693 17.401763 -0.438048 0.240886 7.740353 -0.470682 0.240886 7.740353 -0.470682 0.186383 5.805085 -0.355540 -4.263043 13.527848 -0.452191 -7.881171 -10.972604 0.857667 -4.641344 0.602472 5.458302 21.931903 -1.165841 -34.903212 28.554551 -63.748934 10.037167 44.786959 -23.565763 -60.611020 1.622216 -0.689069 -4.657896 -27.783756 -2.703996 48.610817 -6.203603 -56.003917 -29.923577 -49.001705 -50.176732 59.386763 -26.266634 -55.049167 15.480477 -157.046231 74.220388 -164.019349 2.687906 -15.765461 -5.446491 -0.106436 0.832675 -0.047535 20.226465 -57.972902 -5.745131 174.475507 67.808204 178.609846 5.455260 -22.646299 6.570135 -0.028579 -0.238990 -0.015208
290.043366 53.230438 183.866309 -30.006798 -31.731311 -1.895066 0.496811 17.407341 -0.441162 0.241134 7.741401 -0.472135 0.241134 7.741401 -0.472135 0.186587 5.805870 -0.356631 -4.265943 13.524680 -0.448996 -7.888090 -10.978134 0.865064 -4.641835 0.594951 5.461441 21.936410 -1.173660 -34.904070 28.523684 -63.740383 10.065889 44.790744 -23.570717 -60.607034 1.618366 -0.695339 -4.654947 -27.776391 -2.706810 48.618326 -6.190799 -55.985448 -29.973777 -49.058535 -50.164478 59.455307 -26.276187 -55.050233 15.484088 -157.070327 74.222752 -164.044282 2.728031 -15.763015 -5.460933 -0.101925 0.832972 -0.044921 20.226632 -57.976774 -5.743802 174.479604 67.808299 178.612706 5.469705 -22.645108 6.568812 -0.027498 -0.241001 -0.015001
290.042627 53.231725 183.867114 -30.006725 -31.724546 -1.903678 0.494482 17.409962 -0.443192 0.240877 7.742538 -0.473741 0.240877 7.742538 -0.473741 0.186416 5.806722 -0.357831 -4.264822 13.522689 -0.443841 -7.888137 -10.981554 0.874481 -4.639464 0.585619 5.466559 21.945342 -1.179167 -34.893805 28.509863 -63.725039 10.078022 44.800628 -23.569839 -60.607970 1.620597 -0.699583 -4.654008 -27.768782 -2.712711 48.627164 -6.203906 -55.991698 -29.981522 -49.053741 -50.155259 59.476829 -26.290204 -55.046673 15.500597 -157.027525 74.223942 -163.998986 2.719292 -15.770769 -5.458870 -0.100229 0.836701 -0.045478 20.215709 -57.984440 -5.732451 174.463999 67.806188 178.592376 5.512050 -22.649887 6.552860 -0.026922 -0.243105 -0.013440
290.042452 53.231839 183.868014 -30.005413 -31.715526 -1.913642 0.496650 17.412930 -0.442600 0.241779 7.744026 -0.475562 0.241779 7.744026 -0.475562 0.187116 5.807837 -0.359207 -4.266024 13.520877 -0.440336 -7.891905 -10.984633 0.881700 -4.645349 0.569046 5.479609 21.950955 -1.176303 -34.889283 28.510809 -63.717765 10.078976 44.799706 -23.567639 -60.609430 1.613249 -0.709343 -4.646941 -27.762590 -2.719480 48.633373 -6.191142 -55.972699 -30.035460 -49.110411 -50.139220 59.540524 -26.309947 -55.048587 15.518920 -157.016689 74.224375 -163.987786 2.733591 -15.773644 -5.463629 -0.094655 0.838701 -0.044670 20.209171 -57.997784 -5.724578 174.456143 67.802609 178.590689 5.475378 -22.647075 6.562757 -0.027129 -0.242263 -0.013076
290.037921 53.231642 183.866968 -30.005184 -31.706823 -1.921308 0.503488 17.415152 -0.438493 0.243625 7.744799 -0.476843 0.243625 7.744799 -0.476843 0.188515 5.808415 -0.360190 -4.270430 13.520200 -0.439222 -7.900715 -10.985600 0.885608 -4.643378 0.558591 5.484210 21.946851 -1.183735 -34.882890 28.506705 -63.704677 10.088426 44.798599 -23.566755 -60.614852 1.598154 -0.712971 -4.647797 -27.763758 -2.720833 48.649095 -6.190011 -55.980480 -30.051392 -49.098067 -50.128476 59.556034 -26.321529 -55.051049 15.539561 -157.028154 74.225380 -163.999059 2.762219 -15.772125 -5.474815 -0.086041 0.838743 -0.039858 20.200400 -58.011445 -5.710176 174.488644 67.797922 178.621838 5.484276 -22.649594 6.560675 -0.025377 -0.241101 -0.012015
290.033857 53.231958 183.865886 -30.008796 -31.698707 -1.922554 0.505428 17.414096 -0.441997 0.243920 7.745433 -0.478513 0.243920 7.745433 -0.478513 0.188758 5.808890 -0.361444 -4.271009 13.520988 -0.436316 -7.902938 -10.983925 0.891277 -4.637804 0.549020 5.487967 21.946534 -1.182698 -34.879024 28.486586 -63.695461 10.112105 44.812490 -23.569009 -60.622086 1.593600 -0.717996 -4.649650 -27.761461 -2.713473 48.666073 -6.155896 -55.964280 -30.108968 -49.141450 -50.119352 59.602885 -26.323460 -55.055778 15.548609 -157.015623 74.225347 -163.984631 2.779690 -15.771701 -5.477625 -0.090232 0.838718 -0.040705 20.203523 -58.019393 -5.710463 174.503300 67.796207 178.636469 5.521826 -22.654643 6.546691 -0.025278 -0.240584 -0.011544
290.031850 53.231030 183.865830 -30.013771 -31.692837 -1.920782 0.505068 17.411543 -0.446619 0.244219 7.745032 -0.479920 0.244219 7.745032 -0.479920 0.189000 5.808588 -0.362502 -4.269832 13.524202 -0.436751 -7.900381 -10.978049 0.889780 -4.629500 0.549341 5.491606 21.937650 -1.179882 -34.875217 28.490178 -63.693479 10.113557 44.809900 -23.561498 -60.623630 1.585238 -0.711026 -4.645045 -27.751062 -2.710541 48.674035 -6.144017 -55.982232 -30.131027 -49.126911 -50.113747 59.605659 -26.328412 -55.061577 15.555378 -157.033717 74.224990 -164.000989 2.786720 -15.770652 -5.481975 -0.091442 0.837369 -0.042167 20.214237 -58.029205 -5.711248 174.499662 67.791849 178.637853 5.475129 -22.648554 6.563172 -0.026339 -0.242116 -0.012297
290.033360 53.230756 183.867079 -30.021776 -31.686319 -1.918130 0.506332 17.409687 -0.450709 0.243742 7.745495 -0.481278 0.243742 7.745495 -0.481278 0.188660 5.808935 -0.363512 -4.267592 13.526024 -0.436456 -7.896177 -10.974763 0.889326 -4.619446 0.538152 5.494826 21.936127 -1.170759 -34.877046 28.486725 -63.694952 10.122626 44.808997 -23.556089 -60.631527 1.589855 -0.710339 -4.643567 -27.756367 -2.707879 48.681420 -6.117714 -55.968214 -30.177822 -49.162066 -50.107028 59.650496 -26.333902 -55.067326 15.568748 -157.036261 74.226397 -164.005565 2.749971 -15.770914 -5.466725 -0.096318 0.836307 -0.047304 20.218687 -58.035277 -5.707565 174.514634 67.791329 178.651262 5.433747 -22.648076 6.581254 -0.028147 -0.239291 -0.013059
290.034953 53.231739 183.868674 -30.022937 -31.684240 -1.915937 0.500719 17.415652 -0.456596 0.242985 7.747722 -0.482717 0.242985 7.747722 -0.482717 0.188113 5.810605 -0.364581 -4.265225 13.526155 -0.435375 -7.892129 -10.974567 0.890415 -4.611566 0.525107 5.496161 21.936382 -1.155381 -34.877895 28.489479 -63.698872 10.118724 44.813674 -23.558776 -60.649844 1.586061 -0.719144 -4.645398 -27.761877 -2.705324 48.685138 -6.106586 -55.965688 -30.185115 -49.148029 -50.105854 59.650892 -26.329928 -55.070574 15.565937 -157.026134 74.225176 -163.994394 2.736806 -15.770242 -5.459729 -0.094333 0.834091 -0.048069 20.214845 -58.036557 -5.709589 174.494480 67.789701 178.626446 5.439322 -22.647015 6.578545 -0.029173 -0.242116 -0.014042
